<?xml version="1.0" encoding="us-ascii" standalone="no"?><svg xmlns="http://www.w3.org/2000/svg" xmlns:xlink="http://www.w3.org/1999/xlink" contentStyleType="text/css" height="707px" preserveAspectRatio="none" style="width:827px;height:707px;background:#FFFFFF;" version="1.1" viewBox="0 0 827 707" width="827px" zoomAndPan="magnify"><defs/><g><!--entity adm--><g id="elem_adm"><ellipse cx="122.84" cy="607.15" fill="#F1F1F1" rx="8" ry="8" style="stroke:#181818;stroke-width:0.5;"/><path d="M122.84,615.15 L122.84,642.15 M109.84,623.15 L135.84,623.15 M122.84,642.15 L109.84,657.15 M122.84,642.15 L135.84,657.15 " fill="none" style="stroke:#181818;stroke-width:0.5;"/><text fill="#000000" font-family="sans-serif" font-size="14" lengthAdjust="spacing" textLength="117" x="64.34" y="671.6451">&#1040;&#1076;&#1084;&#1080;&#1085;&#1080;&#1089;&#1090;&#1088;&#1072;&#1090;&#1086;&#1088;</text></g><!--entity user1--><g id="elem_user1"><ellipse cx="410.67" cy="258" fill="#F1F1F1" rx="8" ry="8" style="stroke:#181818;stroke-width:0.5;"/><path d="M410.67,266 L410.67,293 M397.67,274 L423.67,274 M410.67,293 L397.67,308 M410.67,293 L423.67,308 " fill="none" style="stroke:#181818;stroke-width:0.5;"/><text fill="#000000" font-family="sans-serif" font-size="14" lengthAdjust="spacing" textLength="124" x="348.67" y="322.4951">&#1040;&#1074;&#1090;&#1086;&#1088;&#1080;&#1079;&#1086;&#1074;&#1072;&#1085;&#1085;&#1099;&#1081;</text><text fill="#000000" font-family="sans-serif" font-size="14" lengthAdjust="spacing" textLength="104" x="348.67" y="338.792">&#1055;&#1086;&#1083;&#1100;&#1079;&#1086;&#1074;&#1072;&#1090;&#1077;&#1083;&#1100;</text></g><!--entity user2--><g id="elem_user2"><ellipse cx="122.84" cy="14" fill="#F1F1F1" rx="8" ry="8" style="stroke:#181818;stroke-width:0.5;"/><path d="M122.84,22 L122.84,49 M109.84,30 L135.84,30 M122.84,49 L109.84,64 M122.84,49 L135.84,64 " fill="none" style="stroke:#181818;stroke-width:0.5;"/><text fill="#000000" font-family="sans-serif" font-size="14" lengthAdjust="spacing" textLength="142" x="51.84" y="78.4951">&#1053;&#1077;&#1072;&#1074;&#1090;&#1086;&#1088;&#1080;&#1079;&#1086;&#1074;&#1072;&#1085;&#1085;&#1099;&#1081;</text><text fill="#000000" font-family="sans-serif" font-size="14" lengthAdjust="spacing" textLength="103" x="51.84" y="94.792">&#1087;&#1086;&#1083;&#1100;&#1079;&#1086;&#1074;&#1072;&#1090;&#1077;&#1083;&#1100;</text></g><g id="elem_u1"><ellipse cx="410.6663" cy="595.7933" fill="#F1F1F1" rx="94.1163" ry="21.2233" style="stroke:#181818;stroke-width:0.5;"/><text fill="#000000" font-family="sans-serif" font-size="14" lengthAdjust="spacing" textLength="151" x="335.1663" y="598.6399">&#1055;&#1088;&#1086;&#1089;&#1084;&#1086;&#1090;&#1088; &#1072;&#1082;&#1082;&#1072;&#1091;&#1085;&#1090;&#1086;&#1074;</text></g><g id="elem_u2"><ellipse cx="410.6711" cy="676.7862" fill="#F1F1F1" rx="110.9811" ry="24.5962" style="stroke:#181818;stroke-width:0.5;"/><text fill="#000000" font-family="sans-serif" font-size="14" lengthAdjust="spacing" textLength="188" x="316.6711" y="679.6329">&#1059;&#1076;&#1072;&#1083;&#1077;&#1085;&#1080;&#1077; &#1087;&#1086;&#1083;&#1100;&#1079;&#1086;&#1074;&#1072;&#1090;&#1077;&#1083;&#1077;&#1081;</text></g><g id="elem_u3"><ellipse cx="410.6749" cy="51.791" fill="#F1F1F1" rx="70.8049" ry="16.561" style="stroke:#181818;stroke-width:0.5;"/><text fill="#000000" font-family="sans-serif" font-size="14" lengthAdjust="spacing" textLength="95" x="360.1749" y="55.5385">&#1056;&#1077;&#1075;&#1080;&#1089;&#1090;&#1088;&#1072;&#1094;&#1080;&#1103;</text></g><g id="elem_u4"><ellipse cx="410.6745" cy="129.7915" fill="#F1F1F1" rx="76.5845" ry="26.0615" style="stroke:#181818;stroke-width:0.5;"/><text fill="#000000" font-family="sans-serif" font-size="14" lengthAdjust="spacing" textLength="92" x="362.8466" y="125.0626">&#1042;&#1074;&#1086;&#1076; &#1083;&#1086;&#1075;&#1080;&#1085;&#1072;</text><text fill="#000000" font-family="sans-serif" font-size="14" lengthAdjust="spacing" textLength="65" x="376.3466" y="141.3595">&#1080; &#1087;&#1072;&#1088;&#1086;&#1083;&#1103;</text></g><g id="elem_u5"><ellipse cx="701.4181" cy="129.7856" fill="#F1F1F1" rx="71.1781" ry="16.6356" style="stroke:#181818;stroke-width:0.5;"/><text fill="#000000" font-family="sans-serif" font-size="14" lengthAdjust="spacing" textLength="96" x="650.4181" y="133.5332">&#1040;&#1074;&#1090;&#1086;&#1088;&#1080;&#1079;&#1072;&#1094;&#1080;&#1103;</text></g><g id="elem_u6"><ellipse cx="701.4232" cy="450.7886" fill="#F1F1F1" rx="85.2932" ry="19.4586" style="stroke:#181818;stroke-width:0.5;"/><text fill="#000000" font-family="sans-serif" font-size="14" lengthAdjust="spacing" textLength="131" x="635.9232" y="453.6353">&#1055;&#1088;&#1086;&#1089;&#1084;&#1086;&#1090;&#1088; &#1076;&#1072;&#1085;&#1085;&#1099;&#1093;</text></g><g id="elem_u7"><ellipse cx="701.4193" cy="207.7939" fill="#F1F1F1" rx="119.7693" ry="26.3539" style="stroke:#181818;stroke-width:0.5;"/><text fill="#000000" font-family="sans-serif" font-size="14" lengthAdjust="spacing" textLength="152" x="622.4193" y="203.393">&#1044;&#1086;&#1073;&#1072;&#1074;&#1083;&#1077;&#1085;&#1080;&#1077; &#1092;&#1080;&#1083;&#1100;&#1084;&#1072;</text><text fill="#000000" font-family="sans-serif" font-size="14" lengthAdjust="spacing" textLength="91" x="652.9193" y="219.6899">&#1074; &#1080;&#1079;&#1073;&#1088;&#1072;&#1085;&#1085;&#1086;&#1077;</text></g><g id="elem_u8"><ellipse cx="122.8442" cy="363.7873" fill="#F1F1F1" rx="116.8442" ry="26.0473" style="stroke:#181818;stroke-width:0.5;"/><text fill="#000000" font-family="sans-serif" font-size="14" lengthAdjust="spacing" textLength="53" x="96.3442" y="358.4855">&#1057;&#1087;&#1080;&#1089;&#1086;&#1082;</text><text fill="#000000" font-family="sans-serif" font-size="14" lengthAdjust="spacing" textLength="149" x="48.3442" y="374.7824">&#1080;&#1079;&#1073;&#1088;&#1072;&#1085;&#1085;&#1099;&#1093; &#1092;&#1080;&#1083;&#1100;&#1084;&#1086;&#1074;</text></g><g id="elem_u9"><ellipse cx="701.4152" cy="295.791" fill="#F1F1F1" rx="105.6352" ry="26.231" style="stroke:#181818;stroke-width:0.5;"/><text fill="#000000" font-family="sans-serif" font-size="14" lengthAdjust="spacing" textLength="132" x="632.4152" y="291.3901">&#1059;&#1076;&#1072;&#1083;&#1077;&#1085;&#1080;&#1077; &#1092;&#1080;&#1083;&#1100;&#1084;&#1072;</text><text fill="#000000" font-family="sans-serif" font-size="14" lengthAdjust="spacing" textLength="107" x="644.9152" y="307.687">&#1080;&#1079; &#1080;&#1079;&#1073;&#1088;&#1072;&#1085;&#1085;&#1086;&#1075;&#1086;</text></g><g id="elem_u10"><ellipse cx="122.844" cy="450.7899" fill="#F1F1F1" rx="88.194" ry="26.1399" style="stroke:#181818;stroke-width:0.5;"/><text fill="#000000" font-family="sans-serif" font-size="14" lengthAdjust="spacing" textLength="108" x="65.844" y="446.389">&#1048;&#1085;&#1092;&#1086;&#1088;&#1084;&#1072;&#1094;&#1080;&#1103; &#1086;</text><text fill="#000000" font-family="sans-serif" font-size="14" lengthAdjust="spacing" textLength="58" x="90.844" y="462.6859">&#1092;&#1080;&#1083;&#1100;&#1084;&#1077;</text></g><g id="elem_u11"><ellipse cx="410.6732" cy="450.7906" fill="#F1F1F1" rx="77.7532" ry="17.9506" style="stroke:#181818;stroke-width:0.5;"/><text fill="#000000" font-family="sans-serif" font-size="14" lengthAdjust="spacing" textLength="113" x="351.6194" y="454.4209">&#1042;&#1080;&#1076; &#1087;&#1088;&#1086;&#1089;&#1084;&#1086;&#1090;&#1088;&#1072;</text></g><g id="elem_u12"><ellipse cx="122.8357" cy="537.7873" fill="#F1F1F1" rx="87.1457" ry="26.0473" style="stroke:#181818;stroke-width:0.5;"/><text fill="#000000" font-family="sans-serif" font-size="14" lengthAdjust="spacing" textLength="95" x="75.3357" y="532.4855">&#1048;&#1085;&#1092;&#1086;&#1088;&#1084;&#1072;&#1094;&#1080;&#1103;</text><text fill="#000000" font-family="sans-serif" font-size="14" lengthAdjust="spacing" textLength="107" x="69.3357" y="548.7824">&#1086; &#1087;&#1088;&#1080;&#1083;&#1086;&#1078;&#1077;&#1085;&#1080;&#1080;</text></g><g id="elem_u13"><ellipse cx="701.4228" cy="376.7926" fill="#F1F1F1" rx="87.9128" ry="19.9826" style="stroke:#181818;stroke-width:0.5;"/><text fill="#000000" font-family="sans-serif" font-size="14" lengthAdjust="spacing" textLength="137" x="632.9228" y="379.6392">&#1042;&#1099;&#1093;&#1086;&#1076; &#1080;&#1079; &#1072;&#1082;&#1082;&#1072;&#1091;&#1085;&#1090;&#1072;</text></g><!--link adm to u1--><g id="link_adm_u1"><path d="M181.69,628.5 C224.42,622.37 277.1808,614.8019 324.3108,608.0419 " fill="none" id="adm-to-u1" style="stroke:#181818;stroke-width:1.0;"/><polygon fill="#181818" points="330.25,607.19,320.7733,604.5083,325.3007,607.8999,321.9091,612.4273,330.25,607.19" style="stroke:#181818;stroke-width:1.0;"/></g><!--link adm to u2--><g id="link_adm_u2"><path d="M181.69,644.89 C220.18,650.28 265.6878,656.6493 309.9678,662.8393 " fill="none" id="adm-to-u2" style="stroke:#181818;stroke-width:1.0;"/><polygon fill="#181818" points="315.91,663.67,307.5505,658.4625,310.9582,662.9778,306.4429,666.3855,315.91,663.67" style="stroke:#181818;stroke-width:1.0;"/></g><!--link user2 to u3--><g id="link_user2_u3"><path d="M194.13,51.79 C238.43,51.79 289.41,51.79 333.65,51.79 " fill="none" id="user2-to-u3" style="stroke:#181818;stroke-width:1.0;"/><polygon fill="#181818" points="339.65,51.79,330.65,47.79,334.65,51.79,330.65,55.79,339.65,51.79" style="stroke:#181818;stroke-width:1.0;"/></g><!--link user1 to u5--><g id="link_user1_u5"><path d="M460.99,249.23 C493.19,221.03 537.34,186.28 581.65,163.79 C601.73,153.6 619.5091,147.5445 640.3491,142.1845 " fill="none" id="user1-to-u5" style="stroke:#181818;stroke-width:1.0;"/><polygon fill="#181818" points="646.16,140.69,636.4473,139.0579,641.3176,141.9355,638.44,146.8057,646.16,140.69" style="stroke:#181818;stroke-width:1.0;"/></g><!--link u4 to u5--><g id="link_u4_u5"><path d="M487.54,129.79 C531.65,129.79 580.87,129.79 624.01,129.79 " fill="none" id="u4-to-u5" style="stroke:#181818;stroke-width:1.0;"/><polygon fill="#181818" points="630.01,129.79,621.01,125.79,625.01,129.79,621.01,133.79,630.01,129.79" style="stroke:#181818;stroke-width:1.0;"/></g><!--link u8 to u11--><g id="link_u8_u11"><path d="M193.4,384.97 C245.78,400.91 310.4601,420.5925 356.5101,434.6125 " fill="none" id="u8-to-u11" style="stroke:#181818;stroke-width:1.0;"/><polygon fill="#181818" points="362.25,436.36,354.8052,429.9121,357.4668,434.9037,352.4752,437.5653,362.25,436.36" style="stroke:#181818;stroke-width:1.0;"/></g><!--link u10 to u11--><g id="link_u10_u11"><path d="M211.15,450.79 C249.9,450.79 289.1,450.79 326.58,450.79 " fill="none" id="u10-to-u11" style="stroke:#181818;stroke-width:1.0;"/><polygon fill="#181818" points="332.58,450.79,323.58,446.79,327.58,450.79,323.58,454.79,332.58,450.79" style="stroke:#181818;stroke-width:1.0;"/></g><!--link u12 to u11--><g id="link_u12_u11"><path d="M185.16,519.13 C238.14,503 307.8902,481.7776 356.4002,467.0076 " fill="none" id="u12-to-u11" style="stroke:#181818;stroke-width:1.0;"/><polygon fill="#181818" points="362.14,465.26,352.3652,464.0549,357.3568,466.7164,354.6953,471.708,362.14,465.26" style="stroke:#181818;stroke-width:1.0;"/></g><!--link u11 to u6--><g id="link_u11_u6"><path d="M488.67,450.79 C527.85,450.79 569.56,450.79 609.76,450.79 " fill="none" id="u11-to-u6" style="stroke:#181818;stroke-width:1.0;"/><polygon fill="#181818" points="615.76,450.79,606.76,446.79,610.76,450.79,606.76,454.79,615.76,450.79" style="stroke:#181818;stroke-width:1.0;"/></g><!--link user1 to u6--><g id="link_user1_u6"><path d="M469.49,342.54 C501.16,366.4 541.95,394.4 581.65,413.79 C600.57,423.04 616.5576,428.9042 636.2176,434.7342 " fill="none" id="user1-to-u6" style="stroke:#181818;stroke-width:1.0;"/><polygon fill="#181818" points="641.97,436.44,634.4786,430.0463,637.1763,435.0185,632.2042,437.7162,641.97,436.44" style="stroke:#181818;stroke-width:1.0;"/></g><!--link user1 to u7--><g id="link_user1_u7"><path d="M472.91,277.13 C518.85,263.13 576.0808,245.6898 624.1308,231.0398 " fill="none" id="user1-to-u7" style="stroke:#181818;stroke-width:1.0;"/><polygon fill="#181818" points="629.87,229.29,620.0947,228.0886,625.0874,230.7482,622.4278,235.7408,629.87,229.29" style="stroke:#181818;stroke-width:1.0;"/></g><!--link user1 to u9--><g id="link_user1_u9"><path d="M472.91,295.79 C508.5,295.79 548.32,295.79 589.5,295.79 " fill="none" id="user1-to-u9" style="stroke:#181818;stroke-width:1.0;"/><polygon fill="#181818" points="595.5,295.79,586.5,291.79,590.5,295.79,586.5,299.79,595.5,295.79" style="stroke:#181818;stroke-width:1.0;"/></g><!--link user1 to u13--><g id="link_user1_u13"><path d="M472.91,312.97 C523.73,327.23 589.6231,345.709 638.8731,359.529 " fill="none" id="user1-to-u13" style="stroke:#181818;stroke-width:1.0;"/><polygon fill="#181818" points="644.65,361.15,637.0654,354.8672,639.8359,359.7991,634.904,362.5697,644.65,361.15" style="stroke:#181818;stroke-width:1.0;"/></g><!--SRC=[XPFBJi9G48RtVOeJzYOKb4jCV0ctR1geIkHYsXhZJl6oqKHZNBWnQ7o1Yg3bTdY5EM_aVyufPAe6GqZFPVvlvfzEM_vU9AAk29hx1v5eD0E_7ZMx7SS93vkT8o_msiAhHzrWDpfj-S8xySDkszzs77CeSdHFGvfHGdDArBdggJEALO-aEii9BnHUeyqY1_O6qLyaQK0nL7DrG-DQX_eucQhRvGqYHtflACUX7xWhpZDkuhMinJ-iWkFWKVT27xW-85ATmuJKvGkG9lZ5wWAydYPOdSiqRp0TqnHOsAQH-3iZ_cEhBJ3j2uu_MBEkiRwpOKKMzW2EfA40HkfuP8fXBT6vObqoygMoJIRBDZb3trfdUhXieBgoqIKM_OXixxhdpBAwn4DRdfcw1i8aVDUMD0YAaGML6UWLnSCvBYVQ2nVep1owwdjbJTz_507Wxp8-I5fGbO6UaF3Ij6csR98WMUimO5g-cy-yb4I_aaMsUnIdeUxw3AXGMd5YtkfdwYD9vNnA7dG_x00OLzcXN2OiuZjijCN6newUpzNIW8A2tPYX2boxmGnihbQLL8YotJnR5zWwrPKu9BCfyqsLRzpYDm00]--></g></svg>